<svg xmlns="http://www.w3.org/2000/svg" width="340" height="54" viewBox="0 0 340 54">
  <!-- Clean dark card background -->
  <rect width="340" height="54" rx="10" fill="#111827" stroke="#374151" stroke-width="1"/>

  <!-- Official Android Icon -->
  <g transform="translate(18, 14)">
    <path d="M4 8 C4 4.5 7 2 11 2 C15 2 18 4.5 18 8 Z" fill="#10B981"/>
    <circle cx="7.5" cy="5.5" r="0.9" fill="#111827"/>
    <circle cx="14.5" cy="5.5" r="0.9" fill="#111827"/>
    <line x1="6" y1="2" x2="4" y2="0.2" stroke="#10B981" stroke-width="0.9" stroke-linecap="round"/>
    <line x1="16" y1="2" x2="18" y2="0.2" stroke="#10B981" stroke-width="0.9" stroke-linecap="round"/>
    <path d="M4 9.5 H18 V17 C18 18 17 19 16 19 H6 C5 19 4 18 4 17 Z" fill="#10B981"/>
    <rect x="1.8" y="9.5" width="1.4" height="6.5" rx="0.7" fill="#10B981"/>
    <rect x="18.8" y="9.5" width="1.4" height="6.5" rx="0.7" fill="#10B981"/>
    <rect x="7" y="19" width="2" height="3.5" rx="0.8" fill="#10B981"/>
    <rect x="13" y="19" width="2" height="3.5" rx="0.8" fill="#10B981"/>
  </g>

  <!-- Typography -->
  <g font-family="-apple-system, BlinkMacSystemFont, 'Segoe UI', Roboto, Helvetica, Arial, sans-serif">
    <text x="52" y="24" font-size="13" font-weight="600" fill="#FFFFFF">Download Attendance Tracker APK</text>
    <text x="52" y="40" font-size="11" font-weight="400" fill="#9CA3AF">v1.0.0 • Direct Install for Android</text>
  </g>

  <!-- Clean Download Arrow -->
  <g transform="translate(304, 19)" stroke="#9CA3AF" stroke-width="1.8" stroke-linecap="round" stroke-linejoin="round" fill="none">
    <path d="M7 1v9M3.5 6.5L7 10l3.5-3.5M1 13h12"/>
  </g>
</svg>
